<?xml version="1.0" encoding="utf-8"?>
<!-- Generator: Adobe Illustrator 28.1.0, SVG Export Plug-In . SVG Version: 6.00 Build 0)  -->
<svg version="1.1" id="Layer_1" xmlns="http://www.w3.org/2000/svg" xmlns:xlink="http://www.w3.org/1999/xlink" x="0px" y="0px"
	 viewBox="0 0 2000 1047.41" style="enable-background:new 0 0 2000 1047.41;" xml:space="preserve">
<style type="text/css">
	.st0{fill:#FFFFFF;}
</style>
<g>
	<path class="st0" d="M1822.52,693.48c-14.37-2.12-27.27-2.26-41.62,1.61c-10.9,2.94-19.82,8.72-26.8,18.76
		c-7.12,10.24-13.2,21.24-18.55,32.61c0.3-3.54,0.66-7.08,1.14-10.6c1.05-9.62-8.46-13.95-17.91-13.84
		c-10.82,0.12-17.61,2.32-18.97,12.61c-0.28,2.5-0.58,4.99-0.92,7.48c-0.15,1.07-0.39,2.16-0.5,3.24c-0.11,0.61-0.24,1.23-0.34,1.84
		c-20.96,130.09-86.85,72.58-92.84,28.97c-16.61-133.82-92.9-85.66-154.85-8.67c-22.07,27.43-84.07,72.04-83.99,54.54
		c-0.02,3.59,0.57-7.17,0.69-10.79c3.08-91.33-61.9-192.73-149.63-107.92c-26.15-23-96.55-25.91-113.34-9.6
		c-4.31,4.18-13.28,31.65-4.82,92.48c2.6,18.66-40.52,29.77-60.79,8.38c-9.46-9.97-15.62-22.6-17.94-36.14
		c-4.78-27.93-9.89-63.69-38.13-69.15c-153.2-33.63-99.35,75.28-207.07,135.19c-10.18,5.66-22.03,7.96-33.53,6.12
		c-88.14-14.05-48.31-157.33-43.37-181.9c36.17-161.56,38.16-232.9,44.02-349.51c2.55-50.82-32.83-78.33-68.69-80.56
		c-31.32-1.95-59.3,19.42-66.41,49.99c-29.71,127.66,11.53,401.65-11.29,461.92c-20.07,53.01-60.9,90.31-83.13,62.95
		c-3.81-4.69-6.34-10.28-7.52-16.21c-5.44-27.22-13.4-56.91-18.58-73.72c-8.47-37.93,4.94-32.45,19.72-46.09
		c4.26-3.93,5.69-10.07,3.67-15.5c-4.26-11.41-6.38-24.72-18.04-28.71c-1.19-0.41-2.29-1.05-3.14-1.98
		c-25.55-28-31.97-298.73-27.79-398.2c0.97-23.15-19.65-41.39-42.54-37.72C303.16,193.9,261.26,438.25,252.89,538.66
		c-51.23-30.37-97.52-3.63-81.7,27.43c4.8,9.43,13.83,16.01,24.22,17.98c16.63,3.15,41.92,5.27,45.6,13.67
		c8.05,80.94-15.23,163.36,3.44,242.05c9.78,10.84,8.08,24.92,25.3,29.55c9.34,3.31,28.91-21.42,30.68-31.29
		c9.91-43.84-10.95-170.36,6.7-212.07c3.78-8.92,16.93-7.01,31.4-2.78c70.13,20.49,88.16,19.29,96.34,43.11
		c8.13,23.69,7.24,75.06,28.98,119.24c28.35,80.78,74.77,114.09,169.78-26.82c6.07,68.38,66.63,153.9,176.38,94.88
		c23.82-12.82,37.5-33.38,54.21-57.68c43.19,48.99,90.2,39.35,139.34,17.79c30.29,25.91,64.95,29.43,102.38,13.95
		c1.89,14.19,11.42,18.52,23.02,19.12c2.51,0.13,5-0.89,6.58-2.85c25.18-31.01-25.92-106.82,20.59-120.99
		c34.17-6.71,31.9,33.02,40.68,55.57c7.53,19.34,50.94,23.24,49.77-7.16c-0.25-6.38,3.9-30.91,6.51-36.74
		c14.56-32.66,58.88-14.85,62.21,24.25c2.51,29.55,2.72,60.56,7.79,77.15c19.03,62.29,61.45,31.58,134.82-25.36
		c-3.7,56.34,102.55,58.65,114.66,4.31c27.84,46.36,115.18,59.38,132.24,4.62c1,3.98,2.1,7.93,3.3,11.85
		c2.32,7.53,8.93,14.23,17.34,14.13c8.11-0.09,33.32-4.36,32.04-12.63c-19.37-124.98,60.05-103.13,63.79-102.57
		c2.95,0.43,12.6-8.29,13.14-13.8C1835.5,705.67,1832.79,694.99,1822.52,693.48 M304.76,558.3
		c5.64-168.45,56.23-307.27,109.71-318.66c4.2-0.89,8.16,2.27,8.17,6.56c0.26,100.53-2.24,243.65,9.06,342.69
		C393.97,578.77,304.2,575.06,304.76,558.3 M644.83,673.3c-11.75-110.64-3.37-269.48,2.51-380.01
		c0.74-23.29,17.11-45.53,41.82-28.54c3.19,2.19,5.75,5.21,7.91,10.64C720.94,335.6,687.15,614.19,644.83,673.3 M935.36,788.89
		c-41.87-3.71-48.4-61.46-2.67-60.83C977.91,731.18,994.97,791.3,935.36,788.89 M1512.81,812.52c-7.06,1.1-13.81-3.28-15.89-10.12
		c-9.73-31.97,12.93-52.54,27.88-64.8c9.28-7.61,20.36-2.83,16.76-3.88C1572.18,742.7,1543.14,807.78,1512.81,812.52"/>
</g>
</svg>
